<svg xmlns="http://www.w3.org/2000/svg" viewBox="0 0 14 14"><title>画板 1</title><g id="图层_4" data-name="图层 4"><path d="M13,6.39,7.12,1.17a.36.36,0,0,0-.47,0L1,6.39a.35.35,0,0,0-.09.39A.35.35,0,0,0,1.2,7h.85v4.83a1.06,1.06,0,0,0,1.06,1.05h7.78A1.06,1.06,0,0,0,12,11.83V8.54h0a.35.35,0,0,0-.35-.35.35.35,0,0,0-.35.35h0v3.29a.36.36,0,0,1-.36.35H3.11a.36.36,0,0,1-.36-.35V6.65A.35.35,0,0,0,2.4,6.3H2.1L6.89,1.91l5,4.39H11.6a.37.37,0,0,0-.33.21.68.68,0,0,0,0,.14h0a.35.35,0,0,0,.33.35H12.8a.35.35,0,0,0,.33-.23A.36.36,0,0,0,13,6.39Z" style="fill:#fff"/></g></svg>