<?xml version="1.0" encoding="utf-8"?>
<!-- Generator: Adobe Illustrator 22.0.0, SVG Export Plug-In . SVG Version: 6.00 Build 0)  -->
<svg version="1.1" id="图层_1" xmlns="http://www.w3.org/2000/svg" xmlns:xlink="http://www.w3.org/1999/xlink" x="0px" y="0px"
	 viewBox="0 0 1361 609" style="enable-background:new 0 0 1361 609;" xml:space="preserve">
<style type="text/css">
	.st0{display:none;}
	.st1{display:inline;}
	.st2{opacity:0.8;}
	.st3{opacity:0.25;fill:#CFDAE6;enable-background:new    ;}
	.st4{opacity:0.6;fill:#CFDAE6;enable-background:new    ;}
	.st5{opacity:0.45;fill:#CFDAE6;enable-background:new    ;}
	.st6{fill:none;stroke:#CFDAE6;stroke-width:1.7391;stroke-linecap:round;stroke-linejoin:round;}
	
		.st7{opacity:0.7;fill:none;stroke:#E0B4B7;stroke-width:0.7027;stroke-linecap:round;stroke-linejoin:round;stroke-dasharray:1.4054,2.108;enable-background:new    ;}
	.st8{fill:none;stroke:#BACAD9;stroke-width:0.7027;stroke-linecap:round;stroke-linejoin:round;stroke-dasharray:1.4054,2.108;}
	.st9{fill:#CFDAE6;}
	.st10{opacity:0.3;fill:#CFDAE6;enable-background:new    ;}
	.st11{opacity:0.4;fill:none;stroke:#CFDAE6;enable-background:new    ;}
	.st12{opacity:0.5;fill:#BACAD9;enable-background:new    ;}
	.st13{fill:#BACAD9;}
	.st14{opacity:0.45;}
	.st15{fill:#E6A1A6;}
	.st16{opacity:0.35;fill:#E0B4B7;enable-background:new    ;}
	.st17{opacity:0.8;fill:none;stroke:#CFDAE6;enable-background:new    ;}
	.st18{fill:none;stroke:#CFDAE6;stroke-width:0.9412;}
	.st19{opacity:0.45;fill:#BACAD9;enable-background:new    ;}
	.st20{fill:#F7E1AD;}
	.st21{opacity:0.33;}
	.st22{fill:none;stroke:#BACAD9;stroke-width:1.1667;}
	.st23{fill:none;stroke:#CFDAE6;stroke-width:1.1667;}
	.st24{opacity:0.6;fill:none;stroke:#E0B4B7;stroke-width:1.1667;enable-background:new    ;}
	.st25{fill:#C1D1E0;}
	.st26{fill:#D1DEED;fill-opacity:0.6;}
	.st27{fill:#E0B4B7;}
	.st28{fill:#EFF5F9;stroke:#E9EAEA;stroke-miterlimit:10;}
	.st29{fill:#EFF5F9;stroke:#DEDEDE;stroke-miterlimit:10;}
	.st30{fill:#E9EAEA;}
	.st31{fill:#EFF5F9;}
	.st32{fill:none;stroke:#E9EAEA;stroke-miterlimit:10;}
	.st33{fill:#FFFDE1;}
	.st34{fill:#FFF0F0;}
	.st35{fill:#FFFDE1;stroke:#E9EAEA;stroke-width:0.6;stroke-miterlimit:10;}
	.st36{fill:#FFFDE1;stroke:#E9EAEA;stroke-width:1.1921;stroke-miterlimit:10;}
	.st37{fill:#FFF0F0;stroke:#E9EAEA;stroke-width:0.7153;stroke-miterlimit:10;}
	.st38{fill:#FFFDE1;stroke:#E9EAEA;stroke-width:1.5;stroke-miterlimit:10;}
	.st39{font-family:'SimHei';}
	.st40{font-size:31.125px;}
	.st41{fill:none;stroke:#E9EAEA;stroke-linecap:round;stroke-linejoin:round;stroke-miterlimit:10;}
	.st42{fill:none;stroke:#EFF5F9;stroke-linecap:round;stroke-linejoin:round;stroke-miterlimit:10;}
	.st43{fill:none;stroke:#FFFDE1;stroke-linecap:round;stroke-linejoin:round;stroke-miterlimit:10;}
</style>
<title>Group 21</title>
<desc>Created with Sketch.</desc>
<g id="Ant-Design-Pro-3.0" class="st0">
	<g id="账户密码登录-校验" transform="translate(-79.000000, -82.000000)" class="st1">
		<g id="Group-21" transform="translate(77.000000, 73.000000)">
			
				<g id="Group-18" transform="translate(74.901416, 569.699158) rotate(-7.000000) translate(-74.901416, -569.699158) translate(4.901416, 525.199158)" class="st2">
				
					<ellipse id="Oval-11" transform="matrix(-1 2.855995e-06 -2.855995e-06 -1 127.1499 64.9365)" class="st3" cx="63.6" cy="32.5" rx="21.8" ry="21.8"/>
				
					<ellipse id="Oval-3" transform="matrix(-1 -1.173824e-05 1.173824e-05 -1 11.9748 27.7338)" class="st4" cx="6" cy="13.9" rx="5.2" ry="5.2"/>
				<path id="Oval-3-Copy" class="st5" d="M38.1,88.4c5.8,0,10.4-4.7,10.4-10.4c0-5.8-4.7-10.4-10.4-10.4c-5.8,0-10.4,4.7-10.4,10.4
					S32.4,88.4,38.1,88.4z"/>
				<path id="Path-12" class="st6" d="M64.3,33.2l54.9-16.6"/>
				<path id="Path-16" class="st7" d="M42.1,26.5L7.7,14.6"/>
				<path id="Path-15" class="st8" d="M63.9,33.5L43.7,69.3"/>
				
					<g id="Group-17" transform="translate(126.850922, 13.543654) rotate(30.000000) translate(-126.850922, -13.543654) translate(117.285705, 4.381889)">
					
						<ellipse id="Oval-4" transform="matrix(3.050047e-06 1 -1 3.050047e-06 18.2624 -7.228067e-03)" class="st5" cx="9.1" cy="9.1" rx="9.1" ry="9.1"/>
					<path id="Oval-4_1_" class="st9" d="M0,9.1c0,5,4.1,9.1,9.1,9.1s9.1-4.1,9.1-9.1L0,9.1z"/>
				</g>
			</g>
			
				<g id="Group-14" transform="translate(216.294700, 123.725600) rotate(-5.000000) translate(-216.294700, -123.725600) translate(106.294700, 35.225600)">
				
					<ellipse id="Oval-2" transform="matrix(-1 2.304940e-06 -2.304940e-06 -1 58.2353 58.2804)" class="st3" cx="29.1" cy="29.1" rx="29.1" ry="29.1"/>
				
					<ellipse id="Oval-2_1_" transform="matrix(-1 2.304976e-06 -2.304976e-06 -1 58.2353 58.2804)" class="st10" cx="29.1" cy="29.1" rx="21.6" ry="21.6"/>
				
					<ellipse id="Oval-2-Copy" transform="matrix(-1 2.305014e-06 -2.305014e-06 -1 358.0394 276.2923)" class="st11" cx="179" cy="138.1" rx="23.7" ry="23.7"/>
				
					<ellipse id="Oval-2_2_" transform="matrix(-1 2.304954e-06 -2.304954e-06 -1 58.2353 58.2804)" class="st12" cx="29.1" cy="29.1" rx="10.8" ry="10.8"/>
				<path id="Oval-2_3_" class="st13" d="M29.1,39.9l0-21.6c-6,0-10.8,4.8-10.8,10.8S23.2,39.9,29.1,39.9z"/>
				<g id="Group-9" transform="translate(172.000000, 131.000000)" class="st14">
					
						<ellipse id="Oval-2-Copy-2" transform="matrix(-1 2.305109e-06 -2.305109e-06 -1 14.0391 14.2927)" class="st15" cx="7" cy="7.1" rx="6.5" ry="6.5"/>
					<path id="Oval-2-Copy-2_1_" class="st15" d="M7,13.6c-3.6,0-6.5-2.9-6.5-6.5c0-3.6,2.9-6.5,6.5-6.5L7,13.6z"/>
				</g>
				
					<ellipse id="Oval-10" transform="matrix(-1 2.304640e-06 -2.304640e-06 -1 436.7648 277.3715)" class="st9" cx="218.4" cy="138.7" rx="1.6" ry="1.6"/>
				
					<ellipse id="Oval-10-Copy-2" transform="matrix(-1 2.304624e-06 -2.304624e-06 -1 359.1179 350.7618)" class="st16" cx="179.6" cy="175.4" rx="1.6" ry="1.6"/>
				
					<ellipse id="Oval-10-Copy" transform="matrix(-1 2.304955e-06 -2.304955e-06 -1 360.1962 205.0606)" class="st16" cx="180.1" cy="102.5" rx="2.2" ry="2.2"/>
				<path id="Path-11" class="st17" d="M29,30l142.2,102.9"/>
			</g>
			
				<g id="Group-10" transform="translate(1054.100635, 36.659317) rotate(-11.000000) translate(-1054.100635, -36.659317) translate(1026.600635, 4.659317)" class="st2">
				
					<ellipse id="Oval-7" transform="matrix(-1 2.500076e-06 -2.500076e-06 -1 87.6272 63.9999)" class="st18" cx="43.8" cy="32" rx="11.2" ry="11.3"/>
				<g id="Group-12" transform="translate(34.596774, 23.111111)">
					
						<ellipse id="Oval-7_1_" transform="matrix(-1 2.500073e-06 -2.500073e-06 -1 18.3707 17.7778)" class="st19" cx="9.2" cy="8.9" rx="8.5" ry="8.6"/>
					<path id="Oval-7_2_" class="st13" d="M9.2,17.4c4.7,0,8.5-3.8,8.5-8.6s-3.8-8.6-8.5-8.6L9.2,17.4z"/>
				</g>
				<path id="Path-2" class="st18" d="M34.7,24.8L5.7,4.8"/>
				
					<ellipse id="Oval" transform="matrix(-1 2.500072e-06 -2.500072e-06 -1 6.5254 6.5882)" class="st18" cx="3.3" cy="3.3" rx="3.3" ry="3.3"/>
				
					<ellipse id="Oval-Copy" transform="matrix(-1 2.500093e-06 -2.500093e-06 -1 5.5934 122.353)" class="st20" cx="2.8" cy="61.2" rx="2.8" ry="2.8"/>
				<path id="Path-10" class="st18" d="M34.6,39.3L5.1,59.8"/>
			</g>
			
				<g id="Group-19" transform="translate(1282.537219, 446.502867) rotate(-10.000000) translate(-1282.537219, -446.502867) translate(1142.537219, 327.502867)" class="st21">
				
					<g id="Group-17_1_" transform="translate(141.333539, 104.502742) rotate(275.000000) translate(-141.333539, -104.502742) translate(129.333539, 92.502742)">
					<circle id="Oval-4_2_" class="st19" cx="11.7" cy="11.7" r="11.7"/>
					<path id="Oval-4_3_" class="st13" d="M0,11.7c0,6.4,5.2,11.7,11.7,11.7s11.7-5.2,11.7-11.7L0,11.7z"/>
				</g>
				<circle id="Oval-5-Copy-6" class="st9" cx="201.8" cy="87.5" r="5.8"/>
				<path id="Path-17" class="st22" d="M143.5,88.8l11.6-71.2"/>
				<path id="Path-18" class="st22" d="M17.5,37.3l110,60.3"/>
				<polyline id="Path-19" class="st23" points="143.9,120.3 174.9,231.6 38.5,147.5 126.4,110.8 				"/>
				<path id="Path-20" class="st24" d="M159.8,99.7l35.6-10.5"/>
				<path id="Path-24" class="st22" d="M205.3,82.1l33.4-46"/>
				<path id="Path-25" class="st23" d="M266.7,132.2l-59.6-41.8"/>
				<circle id="Oval-5" class="st25" cx="156.9" cy="8.7" r="8.7"/>
				<circle id="Oval-5-Copy-3" class="st25" cx="39.1" cy="148.7" r="5.2"/>
				<circle id="Oval-5-Copy-2" class="st26" cx="8.8" cy="33.2" r="8.7"/>
				<circle id="Oval-5-Copy-4" class="st26" cx="243.8" cy="30.3" r="5.8"/>
				<circle id="Oval-5-Copy-5" class="st27" cx="175.6" cy="232.7" r="5.2"/>
			</g>
		</g>
	</g>
</g>
<g>
	<path class="st28" d="M198.6,127.1l2.5,5.7l2.1,1l-1.6,3.5l-3.5-1.2l0.7-2.3l-2.1-4.8c-6.4,6.7-8.1,8.6-9.5,10.2
		c-1.4,1.6-2.7,2.1-4.7,2.2c-2,0.1-11.2,0.6-16.1,0.5c-3.3-0.1-3.8-0.8-1.4-3.2c3.2-3.2,8.2-8.1,11-10.9c1.6-1.7,2.5-2.6,4.7-2.5
		c3.9-0.1,12.2-0.5,16.6-0.6C201.2,124.7,199.2,126.1,198.6,127.1L198.6,127.1L198.6,127.1z"/>
	<path class="st29" d="M188.6,141.4c1.6-1.6,3.6-4,5.8-6.5l4.2,9.5c0,0-1.9,5.4-8.3,8.2c-6.8,3-12.2,0.9-12.2,0.9l-3.9-8.9
		c2.5-0.1,5.3-0.4,8.7-0.7C185,143.8,187.4,143,188.6,141.4L188.6,141.4L188.6,141.4z"/>
</g>
<g>
	<path class="st30" d="M1033.2,70.7l16.7-16.6c1.7-1.6-0.9-5.7-4.2-9.1c-2.5-2.6-5.7-4.8-7.8-5c-0.2-2.1-2.4-5.2-4.9-7.8
		c-3.3-3.3-7.4-6-9.1-4.3l-16.7,16.6c-0.4,0.3-0.4,0.7-0.1,0.9c4.4,3.2,9.4,8.2,12.5,12.6c0,0,0.1,0.1,0.1,0.1c0,0,0,0,0.1,0
		c0,0,0,0,0,0c4.4,3.2,9.4,8.2,12.5,12.6c0,0,0.1,0.1,0.1,0.1C1032.8,71.2,1033.1,70.9,1033.2,70.7z"/>
	<path class="st31" d="M1044.2,46.6c3.8,3.8,4.1,6.1,3.7,6.4l-11.8,11.7c-1.4-3-3.7-5.2-5.5-6.7c-2.3-1.8-4.3-2.8-4.3-2.8
		c-0.5-0.2-0.9-0.5-1.4-0.8l12.3-12.2C1037.7,42,1040.4,42.8,1044.2,46.6z"/>
	<path class="st31" d="M1031.4,33.8c3.8,3.8,4.6,6.6,4.2,7L1023.3,53c0,0-0.1-0.1-0.1-0.1c-0.6-0.8-0.7-1.4-0.7-1.4l0-0.1
		c-1.4-3.3-4.2-6-6.3-7.7c-1.1-0.9-2.1-1.6-2.9-2.1L1025,30C1025.4,29.6,1027.7,30,1031.4,33.8z"/>
	<path class="st31" d="M1021.9,57c-0.1-0.1-1.4-1.5-1.4-1.5c-1.5-2-3.2-4-5.1-5.9c0,0-3.4-3.2-5.5-4.7l1.9-1.9
		c2.2,1.4,7,4.9,8.9,9.4c0.1,0.2,0.5,1.5,1.7,2.7c0.6,0.6,1.5,1.3,2.7,1.8c0.1,0.1,2,1,4.1,2.7c1.8,1.4,4,3.7,5.3,6.6l-1.7,1.7
		C1032.8,68,1030.3,63.5,1021.9,57z"/>
	<polygon class="st30" points="1026.1,26.4 1027.2,24.7 1046.6,31.4 1045.6,33.1 	"/>
	<polygon class="st30" points="1044.9,32.5 1046.7,31.4 1053.2,51 1051.5,52 	"/>
	<path class="st30" d="M1041.6,55.6c-1.8-2.7-3.9-4.9-6.6-6.7c-0.2-0.1-0.3-0.4-0.1-0.6c0.2-0.2,0.5-0.2,0.7-0.1
		c2.7,1.8,4.8,4,6.6,6.7c0.1,0.2,0.1,0.6-0.1,0.7C1042,55.8,1041.7,55.8,1041.6,55.6z"/>
	<path class="st30" d="M1043.6,53.6c-1.8-2.7-3.9-4.9-6.6-6.7c-0.2-0.1-0.3-0.4-0.1-0.6c0.2-0.2,0.5-0.2,0.7-0.1
		c2.7,1.8,4.8,4,6.6,6.7c0.1,0.2,0.1,0.6-0.1,0.7C1044,53.8,1043.7,53.8,1043.6,53.6z"/>
	<path class="st30" d="M1033.6,50.3c2.7,1.8,4.8,4,6.6,6.7c0.1,0.2,0.1,0.6-0.1,0.7c-0.2,0.2-0.4,0.1-0.6-0.1
		c-1.8-2.7-3.9-4.9-6.6-6.7c-0.2-0.1-0.3-0.4-0.1-0.6C1033,50.2,1033.3,50.1,1033.6,50.3z"/>
	<path class="st30" d="M1028.9,42.9c-1.8-2.6-4-4.8-6.6-6.7c-0.2-0.1-0.2-0.4-0.1-0.6c0.2-0.2,0.5-0.2,0.7-0.1
		c2.6,1.8,4.8,4,6.6,6.7c0.1,0.2,0.1,0.5-0.1,0.7C1029.3,43.1,1029.1,43.1,1028.9,42.9z"/>
	<path class="st30" d="M1031,40.8c-1.8-2.6-4-4.8-6.6-6.7c-0.2-0.1-0.2-0.4-0.1-0.6c0.2-0.2,0.5-0.2,0.7-0.1c2.6,1.8,4.8,4,6.6,6.7
		c0.1,0.2,0.1,0.5-0.1,0.7C1031.4,41.1,1031.1,41.1,1031,40.8z"/>
</g>
<g>
	<path class="st28" d="M288,161c-0.9,4.9-0.5,9.2,1.1,12.9c-3.2,3.3-6.4,6.5-9.7,9.8c-0.4-0.1-0.9-0.1-1.4-0.3l1.7-9.3
		c1.5-0.1,2.8-1.2,3-2.8c0.3-1.8-0.9-3.5-2.7-3.8c-1.8-0.3-3.5,0.9-3.9,2.7c-0.3,1.5,0.5,3,1.9,3.6l-1.7,9.2
		c-0.4-0.1-0.9-0.1-1.4-0.3l-5.7-12.5c2.8-3,4.6-7,5.5-11.8L288,161z"/>
	<polygon class="st30" points="284.4,181.4 302.6,172.7 301.1,169.6 291.4,174.2 	"/>
	<polygon class="st28" points="290.4,158 291.3,153.2 273.6,150.3 272.7,155.1 	"/>
</g>
<g>
	<path class="st32" d="M202.7,218.3c2.7-1.3,5.3,4.1,8,2.8c2.7-1.3,0.1-6.7,2.8-8c2.7-1.3,5.3,4.1,8,2.8c2.7-1.3,0.1-6.7,2.8-8
		c2.7-1.3,5.3,4.1,8,2.8c2.7-1.3,0.1-6.7,2.8-8c2.7-1.3,5.3,4.1,8,2.8c2.7-1.3,0.1-6.7,2.8-8c2.7-1.3,5.3,4.1,8,2.8
		c2.7-1.3,0.1-6.7,2.8-8c2.7-1.3,5.3,4.1,8,2.8c2.7-1.3,0.1-6.7,2.8-8"/>
</g>
<g>
	<path class="st30" d="M150.1,191.9c-4.3,2.8-5.5,8.5-2.7,12.8c1.1,1.7,2.8,3,4.8,3.7c1.5,0.5,3,1.1,4.3,1.8l0,0l3,4.5
		c0.3,0.4,0.8,0.5,1.3,0.3l0.9-0.6c0.7,1,2.2,1.3,3.3,0.6l0.4-0.3c1.1-0.7,1.4-2.1,0.7-3.2l0.9-0.6c0.4-0.3,0.5-0.8,0.3-1.3l-3-4.5
		l0,0c-0.1-1.6,0-3.1,0.1-4.7c0.2-2.1-0.3-4.1-1.5-5.8C160.1,190.3,154.4,189.1,150.1,191.9z"/>
	
		<rect x="159.8" y="210.2" transform="matrix(0.8373 -0.5468 0.5468 0.8373 -88.8551 123.1814)" class="st33" width="5.5" height="1.3"/>
	
		<rect x="158.3" y="207.9" transform="matrix(0.8373 -0.5468 0.5468 0.8373 -87.8537 121.9996)" class="st33" width="5.5" height="1.3"/>
	<path class="st33" d="M162.5,200.3c-0.1,1.5-0.2,3-0.1,4.4l-2.2,1.4l-2.9-4.5l1.2-5.6c0.1-0.4-0.2-0.7-0.5-0.8
		c-0.4-0.1-0.7,0.2-0.8,0.5l-1.1,5.2l-5.2-1.1c-0.4-0.1-0.7,0.2-0.8,0.5c-0.1,0.4,0.2,0.7,0.5,0.8l5.6,1.2l2.9,4.5l-2.2,1.4
		c-1.3-0.6-2.7-1.2-4.1-1.7c-1.6-0.5-2.9-1.6-3.8-3c-2.2-3.4-1.3-8,2.1-10.2c3.4-2.2,8-1.3,10.2,2.1
		C162.3,197,162.7,198.6,162.5,200.3z"/>
	<path class="st30" d="M148.6,190.2c0.6-0.4,0.7-1.2,0.4-1.7l-1.6-2.4c-0.4-0.6-1.2-0.7-1.7-0.4c-0.6,0.4-0.7,1.2-0.4,1.7l1.6,2.4
		C147.3,190.4,148,190.5,148.6,190.2z"/>
	<path class="st30" d="M142.7,196.2c0.4,0.1,0.8,0.1,1.1-0.1c0.2-0.1,0.4-0.3,0.5-0.6c0.2-0.6-0.1-1.4-0.7-1.6l-2.7-1
		c-0.6-0.2-1.4,0.1-1.6,0.7c-0.2,0.6,0.1,1.4,0.7,1.6L142.7,196.2z"/>
	<path class="st30" d="M142.5,201.4l-2.8,0.8c-0.7,0.2-1.1,0.9-0.9,1.5c0.2,0.7,0.9,1.1,1.5,0.9l2.8-0.8c0.1,0,0.3-0.1,0.4-0.2
		c0.4-0.3,0.7-0.8,0.5-1.4C143.8,201.6,143.1,201.2,142.5,201.4z"/>
	<path class="st30" d="M169,194.2l-2.8,0.8c-0.7,0.2-1.1,0.9-0.9,1.5c0.2,0.7,0.9,1.1,1.5,0.9l2.8-0.8c0.1,0,0.3-0.1,0.4-0.2
		c0.4-0.3,0.7-0.8,0.5-1.4C170.4,194.4,169.7,194,169,194.2z"/>
	<path class="st30" d="M146,208.2l-1.8,2.3c-0.4,0.5-0.4,1.3,0.2,1.8c0.4,0.4,1,0.4,1.5,0.1c0.1-0.1,0.2-0.2,0.3-0.3l1.8-2.3
		c0.4-0.5,0.4-1.3-0.2-1.8C147.2,207.6,146.4,207.7,146,208.2z"/>
	<path class="st30" d="M163.1,190.9c0.1-0.1,0.2-0.2,0.3-0.3l1.8-2.3c0.4-0.5,0.4-1.3-0.2-1.8c-0.5-0.4-1.3-0.3-1.8,0.2l-1.8,2.3
		c-0.4,0.5-0.4,1.3,0.2,1.8C162,191.2,162.6,191.2,163.1,190.9z"/>
	<path class="st30" d="M154.2,184.1l-0.1,2.9c0,0.7,0.5,1.3,1.2,1.3c0.3,0,0.5-0.1,0.7-0.2c0.3-0.2,0.5-0.6,0.6-1l0.1-2.9
		c0-0.7-0.5-1.3-1.2-1.3C154.8,182.9,154.2,183.4,154.2,184.1z"/>
</g>
<g>
	<path class="st30" d="M1257.7,391c-3.9,1.9-8.6,0.2-10.6-3.9c-2-4-0.4-8.8,3.4-10.7c3.9-1.9,8.6-0.2,10.6,3.9
		C1263.1,384.3,1261.5,389.1,1257.7,391L1257.7,391z"/>
	<path class="st34" d="M1251.5,378.4c-2.8,1.4-3.9,4.9-2.5,7.8c1.4,2.9,4.9,4.2,7.7,2.8c2.8-1.4,3.9-4.9,2.5-7.8
		S1254.3,377,1251.5,378.4z"/>
	<path class="st34" d="M1257.4,390.4c-5,2.5-7.6,7.5-5.7,11.3c1.9,3.8,7.5,4.9,12.5,2.4c5-2.5,7.6-7.5,5.7-11.3
		C1268,389,1262.4,387.9,1257.4,390.4z"/>
	<path class="st30" d="M1271.3,396c-0.5,0.3-1.2,0-1.4-0.5c-2.3-4.6-7.7-6.6-12.2-4.5c-4.4,2.2-6.2,7.7-3.9,12.4
		c0.3,0.5,0.1,1.2-0.5,1.5c-0.5,0.3-1.2,0-1.4-0.5c-2.8-5.7-0.6-12.6,4.9-15.3c5.5-2.7,12.3-0.2,15.1,5.5
		C1272.1,395.1,1271.8,395.7,1271.3,396"/>
	<path class="st30" d="M1279.7,393.1l-34.4,16.9c-0.5,0.3-1.2,0-1.4-0.5c-0.3-0.5-0.1-1.2,0.5-1.5l34.4-16.9c0.5-0.3,1.2,0,1.4,0.5
		C1280.5,392.2,1280.2,392.8,1279.7,393.1"/>
	<path class="st30" d="M1280.7,406.6l-24.1,11.8c-0.5,0.2-1.2,0-1.4-0.5l-5.5-11.2c-0.3-0.5-0.1-1.2,0.5-1.5l24.1-11.8
		c0.5-0.3,1.2,0,1.4,0.5l5.5,11.2C1281.4,405.7,1281.2,406.3,1280.7,406.6L1280.7,406.6z"/>
	
		<rect x="1253" y="400.7" transform="matrix(0.8978 -0.4405 0.4405 0.8978 -49.4137 598.8775)" class="st34" width="24.7" height="10.3"/>
	<path class="st30" d="M1270.9,395.1c-0.2,0.1-0.3,0.1-0.5,0.1c-0.6,0-1.1-0.6-1.1-1.2l0.3-15.3c0-0.6,0.5-1,1-1c0,0,0,0,0.1,0
		c0.6,0,1.1,0.6,1,1.2l-0.3,15.3C1271.5,394.6,1271.2,394.9,1270.9,395.1"/>
</g>
<g>
	<polygon class="st30" points="1222.5,433.7 1213.6,430.1 1216.1,423.8 1216.7,422.5 1215.5,422.1 1205.3,418 1204.3,417.6 
		1204.1,417.5 1195,440.1 1195.6,440.3 1196.2,440.6 1206.4,444.7 1207.5,445.2 1216.4,448.7 1217,448.9 1217.6,449.2 1223.7,434.1 
		1223.4,434 	"/>
	<polygon class="st31" points="1216.9,447.5 1208.1,443.9 1213.1,431.3 1222,434.9 1216.9,447.5 	"/>
	
		<rect x="1195" y="425.8" transform="matrix(0.3737 -0.9276 0.9276 0.3737 355.1579 1388.6058)" class="st31" width="21.7" height="11"/>
	
		<rect x="1206.9" y="431.5" transform="matrix(0.3737 -0.9276 0.9276 0.3737 355.3403 1391.278)" class="st35" width="2" height="2"/>
	
		<rect x="1208.4" y="427.7" transform="matrix(0.3737 -0.9276 0.9276 0.3737 359.7869 1390.3258)" class="st35" width="2" height="2"/>
	<rect x="1204" y="426" transform="matrix(0.3737 -0.9276 0.9276 0.3737 358.6764 1385.1396)" class="st35" width="2" height="2"/>
	
		<rect x="1205.5" y="422.2" transform="matrix(0.3737 -0.9276 0.9276 0.3737 363.1239 1384.1873)" class="st35" width="2" height="2"/>
	
		<rect x="1203.8" y="439" transform="matrix(0.3737 -0.9276 0.9276 0.3737 346.4477 1393.1821)" class="st35" width="2" height="2"/>
	
		<rect x="1205.4" y="435.3" transform="matrix(0.3737 -0.9276 0.9276 0.3737 350.8936 1392.2301)" class="st35" width="2" height="2"/>
	
		<rect x="1202.5" y="429.7" transform="matrix(0.3737 -0.9276 0.9276 0.3737 354.2298 1386.0917)" class="st35" width="2" height="2"/>
	
		<rect x="1209.9" y="424" transform="matrix(0.3737 -0.9276 0.9276 0.3737 364.2344 1389.3735)" class="st35" width="2" height="2"/>
	
		<rect x="1201" y="433.5" transform="matrix(0.3737 -0.9276 0.9276 0.3737 349.7831 1387.0438)" class="st35" width="2" height="2"/>
	
		<rect x="1217.5" y="435.8" transform="matrix(0.3737 -0.9276 0.9276 0.3737 358.0381 1403.8776)" class="st35" width="2" height="2"/>
	
		<rect x="1199.4" y="437.3" transform="matrix(0.3737 -0.9276 0.9276 0.3737 345.3372 1387.9958)" class="st35" width="2" height="2"/>
	
		<rect x="1214.5" y="443.3" transform="matrix(0.3737 -0.9276 0.9276 0.3737 349.1456 1405.7816)" class="st35" width="2" height="2"/>
	
		<rect x="1216" y="439.6" transform="matrix(0.3737 -0.9276 0.9276 0.3737 353.5915 1404.8297)" class="st35" width="2" height="2"/>
	
		<rect x="1210.1" y="441.6" transform="matrix(0.3737 -0.9276 0.9276 0.3737 348.0346 1400.5929)" class="st35" width="2" height="2"/>
	
		<rect x="1211.6" y="437.8" transform="matrix(0.3737 -0.9276 0.9276 0.3737 352.4804 1399.641)" class="st35" width="2" height="2"/>
	
		<rect x="1213.2" y="434" transform="matrix(0.3737 -0.9276 0.9276 0.3737 356.9271 1398.6888)" class="st35" width="2" height="2"/>
</g>
<g>
	<polygon class="st36" points="940.8,84.1 946,85.3 947.2,80 950.3,80.7 949.1,86 954.2,87.2 959.8,63.6 946.3,60.5 940.8,84.1 	"/>
	<polygon class="st37" points="953.3,65 956.4,65.8 955.7,68.9 952.6,68.1 953.3,65 	"/>
	<polygon class="st37" points="952.2,70 955.3,70.7 954.5,73.8 951.4,73.1 952.2,70 	"/>
	<polygon class="st37" points="951,75 954.1,75.7 953.4,78.8 950.3,78.1 951,75 	"/>
	<polygon class="st37" points="948.4,63.9 951.5,64.6 950.7,67.7 947.6,67 948.4,63.9 	"/>
	<polygon class="st37" points="947.2,68.9 950.3,69.6 949.6,72.7 946.5,71.9 947.2,68.9 	"/>
	
		<rect x="945.6" y="74.2" transform="matrix(0.2284 -0.9736 0.9736 0.2284 657.1286 980.6149)" class="st37" width="3.2" height="3.2"/>
	<polygon class="st36" points="960.5,66 956.5,82.7 958.5,83.2 957.4,88 962.1,89.1 967.1,67.6 	"/>
	<polygon class="st37" points="961.3,81.4 958.5,80.8 959.2,77.9 962,78.6 961.3,81.4 	"/>
	<polygon class="st37" points="962.4,76.9 959.6,76.2 960.2,73.4 963.1,74.1 962.4,76.9 	"/>
	<polygon class="st37" points="963.5,72.4 960.6,71.7 961.3,68.9 964.1,69.5 963.5,72.4 	"/>
	<polygon class="st36" points="932.9,82.2 937.6,83.3 938.7,78.5 940.7,79 944.6,62.3 938,60.7 	"/>
	<polygon class="st37" points="939.8,63.8 942.6,64.5 941.9,67.3 939.1,66.6 939.8,63.8 	"/>
	<polygon class="st37" points="938.7,68.4 941.5,69 940.9,71.8 938.1,71.2 938.7,68.4 	"/>
	<polygon class="st37" points="937.7,72.9 940.5,73.6 939.8,76.4 937,75.7 937.7,72.9 	"/>
</g>
<text transform="matrix(0.9625 0.2713 -0.2713 0.9625 242.527 255.2249)" class="st38 st39 st40">5</text>
<g>
	<line class="st41" x1="984.7" y1="127.9" x2="1039.3" y2="146.5"/>
	<line class="st41" x1="984.7" y1="127.9" x2="1039.3" y2="146.5"/>
	<line class="st41" x1="984.7" y1="127.9" x2="1039.3" y2="146.5"/>
	<line class="st41" x1="984.5" y1="127.9" x2="994.3" y2="99"/>
	<line class="st41" x1="984.5" y1="127.9" x2="994.3" y2="99"/>
	<line class="st41" x1="994.3" y1="99" x2="984.5" y2="127.9"/>
	<polyline class="st42" points="984.5,127.6 1008.8,105.9 1011.9,116.7 1033.9,111.2 1043.1,122.2 1047.7,119.7 	"/>
	<polyline class="st43" points="987.5,119.9 999.5,113.1 1003.8,120.8 1017.5,117.4 1024.5,125.8 1030.9,115.8 1035,128.1 
		1042.7,125.3 1043.6,132.9 	"/>
</g>
</svg>
