<svg id="图层_1" data-name="图层 1" xmlns="http://www.w3.org/2000/svg" xmlns:xlink="http://www.w3.org/1999/xlink" viewBox="0 0 66 64"><defs><linearGradient id="未命名的渐变_5" x1="24.01" y1="39.75" x2="24.01" y2="25.19" gradientUnits="userSpaceOnUse"><stop offset="0" stop-color="#d76917"/><stop offset="0.11" stop-color="#d86f18"/><stop offset="0.25" stop-color="#db7f1b"/><stop offset="0.42" stop-color="#e09a21"/><stop offset="0.59" stop-color="#e8c029"/><stop offset="0.6" stop-color="#e8c229"/><stop offset="0.7" stop-color="#e6ce65"/><stop offset="0.85" stop-color="#e3deb1"/><stop offset="0.95" stop-color="#e2e7e2"/><stop offset="1" stop-color="#e1ebf4"/></linearGradient></defs><title>画板 1</title><path d="M23.84,35.89a4.08,4.08,0,0,1-2.25.62s-2,0-2-.06a6.91,6.91,0,0,1-2.86,3.41l3.54,0a9.24,9.24,0,0,0,5.1-1.23,7.39,7.39,0,0,0,3.23-4.45l2.69-10H26.71l1,1-2.36,8.75A3.31,3.31,0,0,1,23.84,35.89Z" style="fill:url(#未命名的渐变_5)"/><path d="M59.2,12.13a13.45,13.45,0,0,1,3.88,7.3A17.48,17.48,0,0,0,58.6,8c-8.76-9.32-27.31-6.12-41.45,7.16a53.06,53.06,0,0,0-4,4.22c2.1-1.83,4.34-3.61,6.69-5.35C34.77,2.94,49.92,2.85,59.2,12.13Z" style="fill:#e1ebf4"/><path d="M34.77,39.54c3.81,1.13,8.3-1.34,10-5.51s.06-8.47-3.75-9.59S32.75,25.78,31,30,31,38.42,34.77,39.54Zm-1-8.76c1-2.48,3.71-4,6-3.28S43,30.72,42,33.2s-3.71,3.95-6,3.28S32.78,33.26,33.81,30.78Z" style="fill:#e1ebf4"/><path d="M6.8,52.31a14.75,14.75,0,0,1-3.89-7.73A17.47,17.47,0,0,0,7.4,56c8.75,9.32,27.31,6.12,41.45-7.15a55,55,0,0,0,4-4.23c-2.2,1.89-4.61,3.94-7,5.68C31,61.39,14.71,60.21,6.8,52.31Z" style="fill:#e1ebf4"/><path d="M58.7,25.13l-2.26,8.45a3.27,3.27,0,0,1-1.53,2,4.55,4.55,0,0,1-2.38.65,3.13,3.13,0,0,1-2.13-.68,1.77,1.77,0,0,1-.52-2l2.53-9.45H49l-2.7,10a4.22,4.22,0,0,0,.88,4.36,5.56,5.56,0,0,0,4.09,1.43,9.17,9.17,0,0,0,5-1.46,7.23,7.23,0,0,0,3.26-4.33l2.69-10H57.69Z" style="fill:#e1ebf4"/><path d="M16.87,38.32A6.79,6.79,0,0,0,18.81,35,5.43,5.43,0,0,0,19,33.4,3.28,3.28,0,0,0,18.68,32a6.25,6.25,0,0,0,1.1-1.34A6.62,6.62,0,0,0,20.46,29a4.48,4.48,0,0,0-.2-3.32,2.83,2.83,0,0,0-2.77-1.53H8.59l-.88,3.3h3.35L7.24,29.22,4.8,38.35l-.45,1.48h8.94A5,5,0,0,0,16.87,38.32ZM11.18,27.49H16a.83.83,0,0,1,.8.44,1.43,1.43,0,0,1,0,1,2,2,0,0,1-.57.95,1.49,1.49,0,0,1-1,.4H10.43ZM9.49,33.75h4.86a.84.84,0,0,1,.82.42,1.34,1.34,0,0,1,0,1,2.14,2.14,0,0,1-.58,1,1.45,1.45,0,0,1-1,.45H8.73Z" style="fill:#e1ebf4"/></svg>